<?xml version="1.0" encoding="utf-8"?>
<!-- Generator: Adobe Illustrator 23.0.3, SVG Export Plug-In . SVG Version: 6.00 Build 0)  -->
<svg version="1.1" xmlns="http://www.w3.org/2000/svg" xmlns:xlink="http://www.w3.org/1999/xlink" x="0px" y="0px"
	 viewBox="0 0 419.53 476.39" style="enable-background:new 0 0 419.53 476.39;" xml:space="preserve">
<style type="text/css">
	.st0{display:none;}
	.st1{display:inline;fill:#FFC800;}
	.st2{display:inline;fill:#FF7800;}
	.st3{display:inline;fill:#D70000;}
	.st4{display:inline;fill:#00005F;}
	.st5{display:inline;fill:#FFFFFF;}
	.st6{display:inline;fill:url(#SVGID_1_);}
	.st7{display:inline;fill:url(#SVGID_2_);}
	.st8{display:inline;fill:url(#SVGID_3_);}
	.st9{display:inline;fill:url(#SVGID_4_);}
	.st10{display:inline;fill:url(#SVGID_5_);}
	.st11{display:inline;fill:url(#SVGID_6_);}
	.st12{display:inline;fill:url(#SVGID_7_);}
	.st13{display:inline;fill:url(#SVGID_8_);}
	.st14{display:inline;fill:url(#SVGID_9_);}
	.st15{display:inline;fill:url(#SVGID_10_);}
	.st16{display:inline;fill:url(#SVGID_11_);}
	.st17{display:inline;fill:url(#SVGID_12_);}
	.st18{display:inline;}
	.st19{fill:#FDC300;}
	.st20{fill:#EE7601;}
	.st21{fill:#DB0812;}
	.st22{fill:#162259;}
	.st23{fill:url(#SVGID_13_);}
	.st24{fill:url(#SVGID_14_);}
	.st25{fill:url(#SVGID_15_);}
	.st26{fill:url(#SVGID_16_);}
	.st27{fill:url(#SVGID_17_);}
	.st28{fill:url(#SVGID_18_);}
	.st29{fill:#FFFFFF;}
	.st30{fill:url(#SVGID_19_);}
	.st31{fill:url(#SVGID_20_);}
	.st32{fill:url(#SVGID_21_);}
	.st33{fill:url(#SVGID_22_);}
	.st34{fill:url(#SVGID_23_);}
	.st35{fill:url(#SVGID_24_);}
</style>
<g id="Ebene_1" class="st0">
	<path class="st1" d="M401.64,451.23c0,8.47-6.86,15.33-15.33,15.33H33.64c-8.47,0-15.33-6.86-15.33-15.33V21.89
		c0-8.47,6.87-15.33,15.33-15.33h352.67c8.47,0,15.33,6.86,15.33,15.33V451.23z"/>
	<path class="st2" d="M383.36,438.19c0,5.72-4.63,10.35-10.35,10.35H47.18c-5.72,0-10.35-4.63-10.35-10.35V34.93
		c0-5.72,4.63-10.35,10.35-10.35h325.83c5.72,0,10.35,4.63,10.35,10.35V438.19z"/>
	<path class="st3" d="M369.75,427.65c0,4.23-3.43,7.67-7.67,7.67H58.1c-4.24,0-7.67-3.43-7.67-7.67V45.47
		c0-4.24,3.43-7.67,7.67-7.67h303.98c4.23,0,7.67,3.43,7.67,7.67V427.65z"/>
	<path class="st4" d="M358.83,419.03c0,3.18-2.57,5.75-5.75,5.75H67.11c-3.18,0-5.75-2.57-5.75-5.75V54.09
		c0-3.17,2.57-5.75,5.75-5.75h285.97c3.18,0,5.75,2.58,5.75,5.75V419.03z"/>
	<polygon class="st5" points="118.06,357.93 118.06,335.84 102.52,335.84 102.52,357.93 87.81,357.93 87.81,301.63 102.52,301.63 
		102.52,323.31 118.06,323.31 118.06,301.63 132.74,301.63 132.74,357.93 	"/>
	<polygon class="st5" points="244.51,357.93 244.51,301.63 281.26,301.63 281.26,313.64 259.18,313.64 259.18,323.61 278.45,323.61 
		278.45,335.61 259.18,335.61 259.18,345.92 281.8,345.92 281.8,357.93 	"/>
	<path class="st5" d="M321.48,357.93c-1.47-6.05-6.01-14.14-9.57-16.64h-6.25v16.64h-14.68v-56.3h21.81
		c13.33,0,20.46,6.07,20.46,18.68c0,7.29-2.11,12.51-7.54,16.54l-0.22,0.17l0.21,0.19c4.05,3.62,9.85,14.13,11.29,20.72H321.48z
		 M305.65,329.83H311c5.56,0,7.77-2.29,7.77-8.35c0-5.61-2.03-7.84-7.77-7.84h-5.35V329.83z"/>
	<path class="st5" d="M165.72,359.03c-15.79,0-24.23-9.56-24.23-29.17c0-19.45,8.44-29.09,24.23-29.09
		c15.79,0,24.23,9.65,24.23,29.09C189.94,349.47,181.51,359.03,165.72,359.03z M165.72,312.77c-8.09,0-9.38,6.54-9.38,17.09
		c0,10.59,1.28,17.17,9.38,17.17c8.09,0,9.38-6.58,9.38-17.17C175.09,319.31,173.81,312.77,165.72,312.77z"/>
	<path class="st5" d="M198.71,357.93v-41.35c0-9.32,4.95-14.95,13.96-14.95h24.72l-2.59,12.01h-15.73c-4.36,0-5.69,1.37-5.69,5.89
		v6.84h19.18v12.01h-19.18v19.56H198.71z"/>
	<linearGradient id="SVGID_1_" gradientUnits="userSpaceOnUse" x1="171.0049" y1="266.6564" x2="171.0049" y2="90.1887">
		<stop  offset="0" style="stop-color:#1482AF"/>
		<stop  offset="0.0198" style="stop-color:#3798BF"/>
		<stop  offset="0.0535" style="stop-color:#6EB9D8"/>
		<stop  offset="0.0827" style="stop-color:#95D1EA"/>
		<stop  offset="0.1058" style="stop-color:#AEE0F5"/>
		<stop  offset="0.12" style="stop-color:#B7E5F9"/>
		<stop  offset="0.2003" style="stop-color:#97DAF6"/>
		<stop  offset="0.3336" style="stop-color:#67CAF2"/>
		<stop  offset="0.4" style="stop-color:#55C3F0"/>
		<stop  offset="0.6" style="stop-color:#55C3F0"/>
		<stop  offset="0.6664" style="stop-color:#67CAF2"/>
		<stop  offset="0.7997" style="stop-color:#97DAF6"/>
		<stop  offset="0.88" style="stop-color:#B7E5F9"/>
		<stop  offset="0.8942" style="stop-color:#AEE0F5"/>
		<stop  offset="0.9173" style="stop-color:#95D1EA"/>
		<stop  offset="0.9465" style="stop-color:#6EB9D8"/>
		<stop  offset="0.9802" style="stop-color:#3798BF"/>
		<stop  offset="1" style="stop-color:#1482AF"/>
	</linearGradient>
	<path class="st6" d="M201.88,90.19c-13.23,0-18.56,9.1-23.51,23.67l-45.1,132.77c-3.87,11.4-8.77,18.32-16.99,19.3v0.73
		c3.81,0,22.62,0,23.41,0c13.23,0,18.56-9.11,23.51-23.67l45.1-132.77c3.87-11.4,9.23-18.3,17.44-19.3v-0.73
		C221.92,90.19,202.67,90.19,201.88,90.19z"/>
	<linearGradient id="SVGID_2_" gradientUnits="userSpaceOnUse" x1="213.4266" y1="266.2753" x2="213.4266" y2="89.9353">
		<stop  offset="0" style="stop-color:#1482AF"/>
		<stop  offset="0.0198" style="stop-color:#3798BF"/>
		<stop  offset="0.0535" style="stop-color:#6EB9D8"/>
		<stop  offset="0.0827" style="stop-color:#95D1EA"/>
		<stop  offset="0.1058" style="stop-color:#AEE0F5"/>
		<stop  offset="0.12" style="stop-color:#B7E5F9"/>
		<stop  offset="0.2003" style="stop-color:#97DAF6"/>
		<stop  offset="0.3336" style="stop-color:#67CAF2"/>
		<stop  offset="0.4" style="stop-color:#55C3F0"/>
		<stop  offset="0.6" style="stop-color:#55C3F0"/>
		<stop  offset="0.6664" style="stop-color:#67CAF2"/>
		<stop  offset="0.7997" style="stop-color:#97DAF6"/>
		<stop  offset="0.88" style="stop-color:#B7E5F9"/>
		<stop  offset="0.8942" style="stop-color:#AEE0F5"/>
		<stop  offset="0.9173" style="stop-color:#95D1EA"/>
		<stop  offset="0.9465" style="stop-color:#6EB9D8"/>
		<stop  offset="0.9802" style="stop-color:#3798BF"/>
		<stop  offset="1" style="stop-color:#1482AF"/>
	</linearGradient>
	<path class="st7" d="M244.28,89.94c-13.23,0-18.56,9.1-23.51,23.67L175.7,246.25c-3.87,11.4-8.77,18.32-16.99,19.3v0.73
		c3.81,0,22.62,0,23.41,0c13.23,0,18.56-9.1,23.51-23.67l45.07-132.64c3.87-11.4,9.23-18.3,17.44-19.3v-0.73
		C264.33,89.93,245.07,89.94,244.28,89.94z"/>
	<linearGradient id="SVGID_3_" gradientUnits="userSpaceOnUse" x1="133.6559" y1="267.036" x2="133.6559" y2="90.441">
		<stop  offset="0" style="stop-color:#1482AF"/>
		<stop  offset="0.0198" style="stop-color:#3798BF"/>
		<stop  offset="0.0535" style="stop-color:#6EB9D8"/>
		<stop  offset="0.0827" style="stop-color:#95D1EA"/>
		<stop  offset="0.1058" style="stop-color:#AEE0F5"/>
		<stop  offset="0.12" style="stop-color:#B7E5F9"/>
		<stop  offset="0.2003" style="stop-color:#97DAF6"/>
		<stop  offset="0.3336" style="stop-color:#67CAF2"/>
		<stop  offset="0.4" style="stop-color:#55C3F0"/>
		<stop  offset="0.6" style="stop-color:#55C3F0"/>
		<stop  offset="0.6664" style="stop-color:#67CAF2"/>
		<stop  offset="0.7997" style="stop-color:#97DAF6"/>
		<stop  offset="0.88" style="stop-color:#B7E5F9"/>
		<stop  offset="0.8942" style="stop-color:#AEE0F5"/>
		<stop  offset="0.9173" style="stop-color:#95D1EA"/>
		<stop  offset="0.9465" style="stop-color:#6EB9D8"/>
		<stop  offset="0.9802" style="stop-color:#3798BF"/>
		<stop  offset="1" style="stop-color:#1482AF"/>
	</linearGradient>
	<path class="st8" d="M159.5,90.44c-13.23,0-18.56,9.1-23.51,23.67l-52,152.92c3.81,0,12.46,0,13.25,0
		c13.23,0,18.56-9.11,23.51-23.67l45.15-132.89c3.87-11.4,9.23-18.3,17.44-19.3v-0.73C179.52,90.44,160.29,90.44,159.5,90.44z"/>
	<linearGradient id="SVGID_4_" gradientUnits="userSpaceOnUse" x1="243.4928" y1="171.6138" x2="294.9484" y2="150.3002">
		<stop  offset="0.2" style="stop-color:#55C3F0"/>
		<stop  offset="0.3163" style="stop-color:#67CAF2"/>
		<stop  offset="0.5495" style="stop-color:#97DAF6"/>
		<stop  offset="0.69" style="stop-color:#B7E5F9"/>
		<stop  offset="0.7266" style="stop-color:#AEE0F5"/>
		<stop  offset="0.7863" style="stop-color:#95D1EA"/>
		<stop  offset="0.8617" style="stop-color:#6EB9D8"/>
		<stop  offset="0.949" style="stop-color:#3798BF"/>
		<stop  offset="1" style="stop-color:#1482AF"/>
	</linearGradient>
	<path class="st9" d="M294.27,151.99c-4.91-10.01-10.2-11.27-19.44-11.27h-23.51l-9.29,27.36h46.14c6.64,0,12,0.87,15.74,5.83h0.82
		C304.73,173.9,295.46,154.41,294.27,151.99z"/>
	<linearGradient id="SVGID_5_" gradientUnits="userSpaceOnUse" x1="232.2826" y1="216.455" x2="309.0696" y2="184.6488">
		<stop  offset="0.3" style="stop-color:#55C3F0"/>
		<stop  offset="0.4092" style="stop-color:#67CAF2"/>
		<stop  offset="0.6281" style="stop-color:#97DAF6"/>
		<stop  offset="0.76" style="stop-color:#B7E5F9"/>
		<stop  offset="0.7883" style="stop-color:#AEE0F5"/>
		<stop  offset="0.8346" style="stop-color:#95D1EA"/>
		<stop  offset="0.8929" style="stop-color:#6EB9D8"/>
		<stop  offset="0.9605" style="stop-color:#3798BF"/>
		<stop  offset="1" style="stop-color:#1482AF"/>
	</linearGradient>
	<path class="st10" d="M311.03,191.47c-4.61-9.67-10.16-11.25-19.45-11.25H237.9l-9.29,27.36h75.92c6.83,0,11.89,1,15.72,6.01h0.82
		C321.06,213.59,312.19,193.9,311.03,191.47z"/>
	<linearGradient id="SVGID_6_" gradientUnits="userSpaceOnUse" x1="220.8854" y1="261.4904" x2="322.8119" y2="219.2711">
		<stop  offset="0" style="stop-color:#73CDF3"/>
		<stop  offset="0.1146" style="stop-color:#62C8F1"/>
		<stop  offset="0.2416" style="stop-color:#58C4F0"/>
		<stop  offset="0.4" style="stop-color:#55C3F0"/>
		<stop  offset="0.4973" style="stop-color:#67CAF2"/>
		<stop  offset="0.6924" style="stop-color:#97DAF6"/>
		<stop  offset="0.81" style="stop-color:#B7E5F9"/>
		<stop  offset="0.8324" style="stop-color:#AEE0F5"/>
		<stop  offset="0.869" style="stop-color:#95D1EA"/>
		<stop  offset="0.9152" style="stop-color:#6EB9D8"/>
		<stop  offset="0.9687" style="stop-color:#3798BF"/>
		<stop  offset="1" style="stop-color:#1482AF"/>
	</linearGradient>
	<path class="st11" d="M328.2,232.33c-4.81-10.78-10.79-12.39-20.07-12.39H224.4l-7.7,22.66c-0.56,1.64-1.12,3.2-1.7,4.7
		c41.18,0,102.83,0,105.97,0c6.18,0,11.27,1.09,15.18,6.19h0.82C336.98,253.49,328.74,233.55,328.2,232.33z"/>
</g>
<g id="Ebene_2" class="st0">
	<path class="st1" d="M401.47,451.91c0,8.46-6.86,15.32-15.32,15.32H33.87c-8.46,0-15.32-6.86-15.32-15.32V23.05
		c0-8.46,6.86-15.32,15.32-15.32h352.28c8.46,0,15.32,6.86,15.32,15.32V451.91z"/>
	<path class="st2" d="M383.09,438.89c0,5.71-4.63,10.34-10.34,10.34H47.28c-5.71,0-10.34-4.63-10.34-10.34V36.07
		c0-5.71,4.63-10.34,10.34-10.34h325.48c5.71,0,10.34,4.63,10.34,10.34V438.89z"/>
	<path class="st3" d="M369.5,428.36c0,4.23-3.43,7.66-7.66,7.66H58.19c-4.23,0-7.66-3.43-7.66-7.66V46.6c0-4.23,3.43-7.66,7.66-7.66
		h303.65c4.23,0,7.66,3.43,7.66,7.66V428.36z"/>
	<path class="st4" d="M358.58,419.75c0,3.17-2.57,5.74-5.74,5.74H67.19c-3.17,0-5.74-2.57-5.74-5.74V55.21
		c0-3.17,2.57-5.74,5.74-5.74h285.65c3.17,0,5.74,2.57,5.74,5.74V419.75z"/>
	<path class="st5" d="M208.56,397.06c-10.91,0-12.75-4.84-12.75-15.69v-17.44h8.8v19.87c0,5.08,0.6,7.35,4.16,7.35
		c3.48,0,4.1-1.93,4.1-7.35v-19.87h8.69l0,17.44C221.56,393.39,218.52,397.06,208.56,397.06z"/>
	<path class="st5" d="M214.86,360.36c-2.36,0-4.21-1.76-4.21-4.01c0-2.25,1.85-4.54,4.21-4.54c2.36,0,4.21,2.29,4.21,4.54
		C219.06,358.6,217.22,360.36,214.86,360.36z"/>
	<path class="st5" d="M202.63,360.36c-2.4,0-4.28-1.76-4.28-4.01c0-2.25,1.88-4.54,4.28-4.54c2.36,0,4.13,2.25,4.13,4.54
		C206.76,358.64,204.98,360.36,202.63,360.36z"/>
	<path class="st5" d="M227.9,396.47v-32.55h9.37c11.48,0,16.95,2.44,16.95,16.27c0,13.93-5.23,16.28-16.95,16.28H227.9z
		 M238.61,390.81c4.83,0,6.71-2.98,6.71-10.62c0-7.64-1.88-10.61-6.71-10.61h-1.95v21.22H238.61z"/>
	<path class="st5" d="M178.02,397.06c-5.31,0-8.96-1-10.69-1.61l1.17-5.82c3.48,1.09,5.63,1.52,7.42,1.52
		c2.31,0,5.07-0.59,5.07-3.41c0-1.86-2.25-3.21-4.86-4.77l-0.24-0.15c-3.81-2.28-8.12-4.87-8.12-9.96c0-6.11,4.37-9.47,12.29-9.47
		c4.05,0,6.69,0.56,9.68,1.31l-1.18,5.78c-1.1-0.4-3.74-1.23-6.86-1.23c-2.83,0-4.51,1.15-4.51,3.07c0,1.87,2.37,3.2,5.11,4.75
		l0.24,0.13c3.93,2.22,8.39,4.73,8.39,9.85C190.93,393.69,186.59,397.06,178.02,397.06z"/>
	<path class="st5" d="M140.46,344.36c-0.87-3.68-2.52-10.28-3.34-12.99h-25.41c-0.84,2.72-2.47,9.3-3.34,12.99h-22.8
		c9.67-30.55,14.09-43.41,24.89-70.5h27.92c10.8,27.09,15.22,39.95,24.89,70.5H140.46z M114.91,316.17l19.02,0
		c-2.67-9.45-7.73-25.13-9.51-29.61C122.63,291.04,117.57,306.73,114.91,316.17z"/>
	<path class="st5" d="M188.32,344.36c-11.85,0-18.38-6.76-18.38-19.03v-51.47h21.34v47.39c0,5.93,1.63,7.47,7.92,7.47h20.71
		l3.16,15.65H188.32z"/>
	<rect x="309.32" y="273.86" class="st5" width="21.32" height="70.5"/>
	<path class="st5" d="M231.55,344.36v-70.5c0,0,6.96,0,29.47,0c21.66,0,36.82,8.84,36.82,34.69c0,25.26-12.11,35.82-35.88,35.82
		C239.1,344.36,231.55,344.36,231.55,344.36z M252.88,329.12h6.02c13.07,0,18.27-5.83,18.27-20.57c0-13.85-6.33-19.44-19.02-19.44
		h-5.26V329.12z"/>
	<linearGradient id="SVGID_7_" gradientUnits="userSpaceOnUse" x1="170.9676" y1="251.2686" x2="170.9676" y2="74.9952">
		<stop  offset="0" style="stop-color:#1482AF"/>
		<stop  offset="0.0198" style="stop-color:#3798BF"/>
		<stop  offset="0.0535" style="stop-color:#6EB9D8"/>
		<stop  offset="0.0827" style="stop-color:#95D1EA"/>
		<stop  offset="0.1058" style="stop-color:#AEE0F5"/>
		<stop  offset="0.12" style="stop-color:#B7E5F9"/>
		<stop  offset="0.2003" style="stop-color:#97DAF6"/>
		<stop  offset="0.3336" style="stop-color:#67CAF2"/>
		<stop  offset="0.4" style="stop-color:#55C3F0"/>
		<stop  offset="0.6" style="stop-color:#55C3F0"/>
		<stop  offset="0.6664" style="stop-color:#67CAF2"/>
		<stop  offset="0.7997" style="stop-color:#97DAF6"/>
		<stop  offset="0.88" style="stop-color:#B7E5F9"/>
		<stop  offset="0.8942" style="stop-color:#AEE0F5"/>
		<stop  offset="0.9173" style="stop-color:#95D1EA"/>
		<stop  offset="0.9465" style="stop-color:#6EB9D8"/>
		<stop  offset="0.9802" style="stop-color:#3798BF"/>
		<stop  offset="1" style="stop-color:#1482AF"/>
	</linearGradient>
	<path class="st12" d="M201.8,75c-13.21,0-18.54,9.09-23.49,23.65l-45.05,132.62c-3.86,11.39-8.76,18.3-16.97,19.28v0.73
		c3.81,0,22.59,0,23.38,0c13.21,0,18.54-9.1,23.49-23.64L208.22,95c3.86-11.39,9.22-18.28,17.42-19.28V75
		C221.83,75,202.6,75,201.8,75z"/>
	<linearGradient id="SVGID_8_" gradientUnits="userSpaceOnUse" x1="213.3426" y1="250.8879" x2="213.3426" y2="74.7421">
		<stop  offset="0" style="stop-color:#1482AF"/>
		<stop  offset="0.0198" style="stop-color:#3798BF"/>
		<stop  offset="0.0535" style="stop-color:#6EB9D8"/>
		<stop  offset="0.0827" style="stop-color:#95D1EA"/>
		<stop  offset="0.1058" style="stop-color:#AEE0F5"/>
		<stop  offset="0.12" style="stop-color:#B7E5F9"/>
		<stop  offset="0.2003" style="stop-color:#97DAF6"/>
		<stop  offset="0.3336" style="stop-color:#67CAF2"/>
		<stop  offset="0.4" style="stop-color:#55C3F0"/>
		<stop  offset="0.6" style="stop-color:#55C3F0"/>
		<stop  offset="0.6664" style="stop-color:#67CAF2"/>
		<stop  offset="0.7997" style="stop-color:#97DAF6"/>
		<stop  offset="0.88" style="stop-color:#B7E5F9"/>
		<stop  offset="0.8942" style="stop-color:#AEE0F5"/>
		<stop  offset="0.9173" style="stop-color:#95D1EA"/>
		<stop  offset="0.9465" style="stop-color:#6EB9D8"/>
		<stop  offset="0.9802" style="stop-color:#3798BF"/>
		<stop  offset="1" style="stop-color:#1482AF"/>
	</linearGradient>
	<path class="st13" d="M244.16,74.74c-13.22,0-18.54,9.09-23.49,23.64l-45.02,132.49c-3.87,11.39-8.76,18.3-16.97,19.28v0.73
		c3.81,0,22.59,0,23.38,0c13.21,0,18.54-9.09,23.49-23.64l45.02-132.49c3.86-11.39,9.22-18.28,17.42-19.28v-0.73
		C264.19,74.74,244.95,74.74,244.16,74.74z"/>
	<linearGradient id="SVGID_9_" gradientUnits="userSpaceOnUse" x1="133.6594" y1="251.6478" x2="133.6594" y2="75.2471">
		<stop  offset="0" style="stop-color:#1482AF"/>
		<stop  offset="0.0198" style="stop-color:#3798BF"/>
		<stop  offset="0.0535" style="stop-color:#6EB9D8"/>
		<stop  offset="0.0827" style="stop-color:#95D1EA"/>
		<stop  offset="0.1058" style="stop-color:#AEE0F5"/>
		<stop  offset="0.12" style="stop-color:#B7E5F9"/>
		<stop  offset="0.2003" style="stop-color:#97DAF6"/>
		<stop  offset="0.3336" style="stop-color:#67CAF2"/>
		<stop  offset="0.4" style="stop-color:#55C3F0"/>
		<stop  offset="0.6" style="stop-color:#55C3F0"/>
		<stop  offset="0.6664" style="stop-color:#67CAF2"/>
		<stop  offset="0.7997" style="stop-color:#97DAF6"/>
		<stop  offset="0.88" style="stop-color:#B7E5F9"/>
		<stop  offset="0.8942" style="stop-color:#AEE0F5"/>
		<stop  offset="0.9173" style="stop-color:#95D1EA"/>
		<stop  offset="0.9465" style="stop-color:#6EB9D8"/>
		<stop  offset="0.9802" style="stop-color:#3798BF"/>
		<stop  offset="1" style="stop-color:#1482AF"/>
	</linearGradient>
	<path class="st14" d="M159.47,75.25c-13.22,0-18.54,9.09-23.49,23.65L84.04,251.65c3.81,0,12.45,0,13.24,0
		c13.21,0,18.54-9.1,23.49-23.65l45.1-132.75c3.86-11.39,9.22-18.28,17.42-19.28v-0.73C179.47,75.25,160.26,75.25,159.47,75.25z"/>
	<linearGradient id="SVGID_10_" gradientUnits="userSpaceOnUse" x1="243.3761" y1="156.3306" x2="294.775" y2="135.0405">
		<stop  offset="0.2" style="stop-color:#55C3F0"/>
		<stop  offset="0.3163" style="stop-color:#67CAF2"/>
		<stop  offset="0.5495" style="stop-color:#97DAF6"/>
		<stop  offset="0.69" style="stop-color:#B7E5F9"/>
		<stop  offset="0.7266" style="stop-color:#AEE0F5"/>
		<stop  offset="0.7863" style="stop-color:#95D1EA"/>
		<stop  offset="0.8617" style="stop-color:#6EB9D8"/>
		<stop  offset="0.949" style="stop-color:#3798BF"/>
		<stop  offset="1" style="stop-color:#1482AF"/>
	</linearGradient>
	<path class="st15" d="M294.1,136.73c-4.9-10-10.18-11.26-19.42-11.26H251.2l-9.28,27.33H288c6.63,0,11.99,0.87,15.72,5.82h0.82
		C304.54,158.62,295.29,139.15,294.1,136.73z"/>
	<linearGradient id="SVGID_11_" gradientUnits="userSpaceOnUse" x1="232.1783" y1="201.1224" x2="308.8807" y2="169.3512">
		<stop  offset="0.3" style="stop-color:#55C3F0"/>
		<stop  offset="0.4092" style="stop-color:#67CAF2"/>
		<stop  offset="0.6281" style="stop-color:#97DAF6"/>
		<stop  offset="0.76" style="stop-color:#B7E5F9"/>
		<stop  offset="0.7883" style="stop-color:#AEE0F5"/>
		<stop  offset="0.8346" style="stop-color:#95D1EA"/>
		<stop  offset="0.8929" style="stop-color:#6EB9D8"/>
		<stop  offset="0.9605" style="stop-color:#3798BF"/>
		<stop  offset="1" style="stop-color:#1482AF"/>
	</linearGradient>
	<path class="st16" d="M310.84,176.17c-4.61-9.66-10.15-11.24-19.42-11.24h-53.62l-9.28,27.33h75.83c6.82,0,11.88,1,15.7,6h0.82
		C320.86,198.26,311.99,178.59,310.84,176.17z"/>
	<linearGradient id="SVGID_12_" gradientUnits="userSpaceOnUse" x1="220.7936" y1="246.1084" x2="322.6078" y2="203.9355">
		<stop  offset="0" style="stop-color:#73CDF3"/>
		<stop  offset="0.1146" style="stop-color:#62C8F1"/>
		<stop  offset="0.2416" style="stop-color:#58C4F0"/>
		<stop  offset="0.4" style="stop-color:#55C3F0"/>
		<stop  offset="0.4973" style="stop-color:#67CAF2"/>
		<stop  offset="0.6924" style="stop-color:#97DAF6"/>
		<stop  offset="0.81" style="stop-color:#B7E5F9"/>
		<stop  offset="0.8324" style="stop-color:#AEE0F5"/>
		<stop  offset="0.869" style="stop-color:#95D1EA"/>
		<stop  offset="0.9152" style="stop-color:#6EB9D8"/>
		<stop  offset="0.9687" style="stop-color:#3798BF"/>
		<stop  offset="1" style="stop-color:#1482AF"/>
	</linearGradient>
	<path class="st17" d="M327.99,216.98c-4.8-10.77-10.77-12.37-20.05-12.37h-83.63l-7.69,22.63c-0.56,1.64-1.12,3.2-1.7,4.69
		c41.13,0,102.71,0,105.85,0c6.17,0,11.25,1.09,15.17,6.18h0.82C336.76,238.12,328.53,218.2,327.99,216.98z"/>
</g>
<g id="Ebene_3" class="st0">
	<g class="st18">
		<path class="st19" d="M401.55,451.3c0,8.46-6.86,15.32-15.32,15.32H33.78c-8.46,0-15.32-6.86-15.32-15.32V22.24
			c0-8.46,6.86-15.32,15.32-15.32h352.44c8.46,0,15.32,6.86,15.32,15.32V451.3z"/>
		<path class="st20" d="M383.16,438.27c0,5.71-4.63,10.34-10.34,10.34H47.19c-5.71,0-10.34-4.63-10.34-10.34V35.26
			c0-5.71,4.63-10.34,10.34-10.34h325.62c5.71,0,10.34,4.63,10.34,10.34V438.27z"/>
		<path class="st21" d="M369.56,427.74c0,4.23-3.43,7.66-7.66,7.66H58.11c-4.23,0-7.66-3.43-7.66-7.66V45.8
			c0-4.23,3.43-7.66,7.66-7.66H361.9c4.23,0,7.66,3.43,7.66,7.66V427.74z"/>
		<path class="st22" d="M358.64,419.12c0,3.17-2.57,5.75-5.75,5.75H67.11c-3.18,0-5.75-2.57-5.75-5.75V54.42
			c0-3.17,2.57-5.75,5.75-5.75h285.78c3.18,0,5.75,2.57,5.75,5.75V419.12z"/>
		<g>
			<linearGradient id="SVGID_13_" gradientUnits="userSpaceOnUse" x1="171.1155" y1="250.4979" x2="171.1155" y2="74.1447">
				<stop  offset="0" style="stop-color:#1482AF"/>
				<stop  offset="0.0198" style="stop-color:#3798BF"/>
				<stop  offset="0.0535" style="stop-color:#6EB9D8"/>
				<stop  offset="0.0827" style="stop-color:#95D1EA"/>
				<stop  offset="0.1058" style="stop-color:#AEE0F5"/>
				<stop  offset="0.12" style="stop-color:#B7E5F9"/>
				<stop  offset="0.2003" style="stop-color:#97DAF6"/>
				<stop  offset="0.3336" style="stop-color:#67CAF2"/>
				<stop  offset="0.4" style="stop-color:#55C3F0"/>
				<stop  offset="0.6" style="stop-color:#55C3F0"/>
				<stop  offset="0.6664" style="stop-color:#67CAF2"/>
				<stop  offset="0.7997" style="stop-color:#97DAF6"/>
				<stop  offset="0.88" style="stop-color:#B7E5F9"/>
				<stop  offset="0.8942" style="stop-color:#AEE0F5"/>
				<stop  offset="0.9173" style="stop-color:#95D1EA"/>
				<stop  offset="0.9465" style="stop-color:#6EB9D8"/>
				<stop  offset="0.9802" style="stop-color:#3798BF"/>
				<stop  offset="1" style="stop-color:#1482AF"/>
			</linearGradient>
			<path class="st23" d="M201.97,74.14c-13.22,0-18.55,9.1-23.5,23.66L133.4,230.48c-3.87,11.4-8.77,18.31-16.98,19.29v0.73
				c3.81,0,22.6,0,23.39,0c13.22,0,18.55-9.1,23.5-23.66l45.07-132.68c3.86-11.39,9.22-18.29,17.43-19.29v-0.73
				C222,74.14,202.76,74.14,201.97,74.14z"/>
			<linearGradient id="SVGID_14_" gradientUnits="userSpaceOnUse" x1="213.5097" y1="250.1171" x2="213.5097" y2="73.8915">
				<stop  offset="0" style="stop-color:#1482AF"/>
				<stop  offset="0.0198" style="stop-color:#3798BF"/>
				<stop  offset="0.0535" style="stop-color:#6EB9D8"/>
				<stop  offset="0.0827" style="stop-color:#95D1EA"/>
				<stop  offset="0.1058" style="stop-color:#AEE0F5"/>
				<stop  offset="0.12" style="stop-color:#B7E5F9"/>
				<stop  offset="0.2003" style="stop-color:#97DAF6"/>
				<stop  offset="0.3336" style="stop-color:#67CAF2"/>
				<stop  offset="0.4" style="stop-color:#55C3F0"/>
				<stop  offset="0.6" style="stop-color:#55C3F0"/>
				<stop  offset="0.6664" style="stop-color:#67CAF2"/>
				<stop  offset="0.7997" style="stop-color:#97DAF6"/>
				<stop  offset="0.88" style="stop-color:#B7E5F9"/>
				<stop  offset="0.8942" style="stop-color:#AEE0F5"/>
				<stop  offset="0.9173" style="stop-color:#95D1EA"/>
				<stop  offset="0.9465" style="stop-color:#6EB9D8"/>
				<stop  offset="0.9802" style="stop-color:#3798BF"/>
				<stop  offset="1" style="stop-color:#1482AF"/>
			</linearGradient>
			<path class="st24" d="M244.34,73.89c-13.22,0-18.55,9.1-23.5,23.66L175.81,230.1c-3.87,11.4-8.77,18.31-16.98,19.29v0.73
				c3.81,0,22.6,0,23.39,0c13.22,0,18.55-9.1,23.5-23.66l45.04-132.55c3.87-11.39,9.22-18.29,17.43-19.29v-0.73
				C264.38,73.89,245.13,73.89,244.34,73.89z"/>
			<linearGradient id="SVGID_15_" gradientUnits="userSpaceOnUse" x1="133.7907" y1="250.8773" x2="133.7907" y2="74.3969">
				<stop  offset="0" style="stop-color:#1482AF"/>
				<stop  offset="0.0198" style="stop-color:#3798BF"/>
				<stop  offset="0.0535" style="stop-color:#6EB9D8"/>
				<stop  offset="0.0827" style="stop-color:#95D1EA"/>
				<stop  offset="0.1058" style="stop-color:#AEE0F5"/>
				<stop  offset="0.12" style="stop-color:#B7E5F9"/>
				<stop  offset="0.2003" style="stop-color:#97DAF6"/>
				<stop  offset="0.3336" style="stop-color:#67CAF2"/>
				<stop  offset="0.4" style="stop-color:#55C3F0"/>
				<stop  offset="0.6" style="stop-color:#55C3F0"/>
				<stop  offset="0.6664" style="stop-color:#67CAF2"/>
				<stop  offset="0.7997" style="stop-color:#97DAF6"/>
				<stop  offset="0.88" style="stop-color:#B7E5F9"/>
				<stop  offset="0.8942" style="stop-color:#AEE0F5"/>
				<stop  offset="0.9173" style="stop-color:#95D1EA"/>
				<stop  offset="0.9465" style="stop-color:#6EB9D8"/>
				<stop  offset="0.9802" style="stop-color:#3798BF"/>
				<stop  offset="1" style="stop-color:#1482AF"/>
			</linearGradient>
			<path class="st25" d="M159.61,74.4c-13.22,0-18.55,9.1-23.5,23.66L84.15,250.88c3.81,0,12.46,0,13.25,0
				c13.22,0,18.55-9.1,23.5-23.66L166,94.41c3.87-11.4,9.22-18.29,17.43-19.29V74.4C179.62,74.4,160.41,74.4,159.61,74.4z"/>
			<linearGradient id="SVGID_16_" gradientUnits="userSpaceOnUse" x1="243.5563" y1="155.517" x2="294.9786" y2="134.2172">
				<stop  offset="0.2" style="stop-color:#55C3F0"/>
				<stop  offset="0.3163" style="stop-color:#67CAF2"/>
				<stop  offset="0.5495" style="stop-color:#97DAF6"/>
				<stop  offset="0.69" style="stop-color:#B7E5F9"/>
				<stop  offset="0.7266" style="stop-color:#AEE0F5"/>
				<stop  offset="0.7863" style="stop-color:#95D1EA"/>
				<stop  offset="0.8617" style="stop-color:#6EB9D8"/>
				<stop  offset="0.949" style="stop-color:#3798BF"/>
				<stop  offset="1" style="stop-color:#1482AF"/>
			</linearGradient>
			<path class="st26" d="M294.31,135.91c-4.9-10-10.19-11.27-19.43-11.27h-23.5l-9.29,27.34h46.11c6.64,0,12,0.87,15.73,5.82h0.82
				C304.75,157.8,295.49,138.32,294.31,135.91z"/>
			<linearGradient id="SVGID_17_" gradientUnits="userSpaceOnUse" x1="232.3535" y1="200.3291" x2="309.0906" y2="168.5435">
				<stop  offset="0.3" style="stop-color:#55C3F0"/>
				<stop  offset="0.4092" style="stop-color:#67CAF2"/>
				<stop  offset="0.6281" style="stop-color:#97DAF6"/>
				<stop  offset="0.76" style="stop-color:#B7E5F9"/>
				<stop  offset="0.7883" style="stop-color:#AEE0F5"/>
				<stop  offset="0.8346" style="stop-color:#95D1EA"/>
				<stop  offset="0.8929" style="stop-color:#6EB9D8"/>
				<stop  offset="0.9605" style="stop-color:#3798BF"/>
				<stop  offset="1" style="stop-color:#1482AF"/>
			</linearGradient>
			<path class="st27" d="M311.05,175.36c-4.61-9.66-10.15-11.24-19.43-11.24h-53.65l-9.29,27.34h75.87c6.83,0,11.88,1,15.71,6.01
				h0.82C321.07,197.47,312.2,177.79,311.05,175.36z"/>
			<linearGradient id="SVGID_18_" gradientUnits="userSpaceOnUse" x1="220.9636" y1="245.3353" x2="322.824" y2="203.1434">
				<stop  offset="0" style="stop-color:#73CDF3"/>
				<stop  offset="0.1146" style="stop-color:#62C8F1"/>
				<stop  offset="0.2416" style="stop-color:#58C4F0"/>
				<stop  offset="0.4" style="stop-color:#55C3F0"/>
				<stop  offset="0.4973" style="stop-color:#67CAF2"/>
				<stop  offset="0.6924" style="stop-color:#97DAF6"/>
				<stop  offset="0.81" style="stop-color:#B7E5F9"/>
				<stop  offset="0.8324" style="stop-color:#AEE0F5"/>
				<stop  offset="0.869" style="stop-color:#95D1EA"/>
				<stop  offset="0.9152" style="stop-color:#6EB9D8"/>
				<stop  offset="0.9687" style="stop-color:#3798BF"/>
				<stop  offset="1" style="stop-color:#1482AF"/>
			</linearGradient>
			<path class="st28" d="M328.21,216.2c-4.81-10.77-10.78-12.38-20.06-12.38h-83.67l-7.69,22.64c-0.56,1.64-1.12,3.2-1.7,4.7
				c41.15,0,102.76,0,105.9,0c6.17,0,11.26,1.09,15.17,6.19h0.82C336.98,237.34,328.75,217.41,328.21,216.2z"/>
		</g>
		<path class="st29" d="M174.68,393.85c-10.92,0-12.76-4.84-12.76-15.7V360.7h8.8v19.88c0,5.09,0.6,7.36,4.16,7.36
			c3.48,0,4.1-1.93,4.1-7.36V360.7h8.7v17.45C187.68,390.18,184.65,393.85,174.68,393.85z"/>
		<rect x="194.9" y="360.7" class="st29" width="8.81" height="32.56"/>
		<polygon class="st29" points="265.99,393.27 265.99,360.7 287.23,360.7 287.23,366.88 274.79,366.88 274.79,373.58 285.14,373.58 
			285.14,379.56 274.79,379.56 274.79,387.07 287.23,387.07 287.23,393.27 		"/>
		<path class="st29" d="M144.24,393.85c-5.31,0-8.96-1-10.69-1.61l1.17-5.82c3.48,1.09,5.63,1.52,7.43,1.52
			c2.31,0,5.07-0.59,5.07-3.42c0-1.86-2.25-3.21-4.87-4.77l-0.24-0.15c-3.81-2.28-8.13-4.88-8.13-9.97c0-6.11,4.37-9.48,12.3-9.48
			c4.05,0,6.69,0.56,9.68,1.31l-1.19,5.78c-1.1-0.4-3.74-1.22-6.86-1.22c-2.82,0-4.51,1.15-4.51,3.07c0,1.87,2.37,3.21,5.11,4.75
			l0.24,0.13c3.93,2.22,8.39,4.74,8.39,9.85C157.15,390.48,152.8,393.85,144.24,393.85z"/>
		<path class="st29" d="M220.37,393.85c-5.31,0-8.96-1-10.69-1.61l1.17-5.82c3.48,1.09,5.63,1.52,7.43,1.52
			c2.31,0,5.07-0.59,5.07-3.42c0-1.86-2.25-3.21-4.86-4.77l-0.24-0.15c-3.81-2.28-8.13-4.88-8.13-9.97c0-6.11,4.37-9.48,12.3-9.48
			c4.05,0,6.69,0.56,9.68,1.31l-1.19,5.78c-1.1-0.4-3.74-1.22-6.86-1.22c-2.82,0-4.51,1.15-4.51,3.07c0,1.87,2.37,3.21,5.11,4.75
			l0.24,0.13c3.93,2.22,8.39,4.74,8.39,9.85C233.28,390.48,228.94,393.85,220.37,393.85z"/>
		<path class="st29" d="M247.69,393.85c-5.31,0-8.97-1-10.69-1.61l1.17-5.82c3.48,1.09,5.63,1.52,7.42,1.52
			c2.32,0,5.07-0.59,5.07-3.42c0-1.86-2.25-3.21-4.87-4.77l-0.24-0.15c-3.81-2.28-8.13-4.88-8.13-9.97c0-6.11,4.37-9.48,12.3-9.48
			c4.06,0,6.69,0.56,9.68,1.31l-1.18,5.78c-1.1-0.4-3.74-1.22-6.86-1.22c-2.82,0-4.51,1.15-4.51,3.07c0,1.87,2.37,3.21,5.11,4.75
			l0.24,0.13c3.93,2.22,8.39,4.74,8.39,9.85C260.6,390.48,256.26,393.85,247.69,393.85z"/>
		<path class="st29" d="M140.42,343.7c-0.87-3.68-2.52-10.29-3.34-12.99h-25.42c-0.84,2.72-2.47,9.31-3.34,12.99H85.5
			c9.67-30.56,14.1-43.43,24.9-70.54h27.93c10.8,27.11,15.23,39.97,24.9,70.54H140.42z M114.85,315.49l19.03,0
			c-2.67-9.45-7.73-25.14-9.52-29.63C122.58,290.35,117.52,306.05,114.85,315.49z"/>
		<path class="st29" d="M188.3,343.7c-11.86,0-18.39-6.76-18.39-19.04v-51.5h21.34v47.41c0,5.93,1.63,7.47,7.92,7.47h20.72
			l3.16,15.65H188.3z"/>
		<rect x="309.35" y="273.16" class="st29" width="21.32" height="70.54"/>
		<path class="st29" d="M231.55,343.7v-70.54c0,0,6.97,0,29.48,0c21.67,0,36.83,8.84,36.83,34.7c0,25.28-12.12,35.83-35.9,35.83
			C239.1,343.7,231.55,343.7,231.55,343.7z M252.89,328.45h6.02c13.07,0,18.28-5.84,18.28-20.58c0-13.85-6.33-19.45-19.03-19.45
			h-5.27V328.45z"/>
	</g>
</g>
<g id="Ebene_4">
	<path class="st19" d="M401.96,451.53c0,8.47-6.87,15.34-15.34,15.34H33.87c-8.47,0-15.34-6.87-15.34-15.34V22.08
		c0-8.47,6.87-15.34,15.34-15.34h352.76c8.47,0,15.34,6.87,15.34,15.34V451.53z"/>
	<path class="st20" d="M383.56,438.49c0,5.72-4.64,10.35-10.35,10.35H47.29c-5.72,0-10.35-4.64-10.35-10.35V35.12
		c0-5.72,4.64-10.35,10.35-10.35h325.92c5.72,0,10.35,4.63,10.35,10.35V438.49z"/>
	<path class="st21" d="M369.95,427.95c0,4.23-3.43,7.67-7.67,7.67H58.22c-4.24,0-7.67-3.43-7.67-7.67V45.67
		c0-4.24,3.43-7.67,7.67-7.67h304.06c4.24,0,7.67,3.43,7.67,7.67V427.95z"/>
	<path class="st22" d="M359.02,419.32c0,3.18-2.57,5.75-5.75,5.75H67.23c-3.18,0-5.75-2.57-5.75-5.75V54.29
		c0-3.18,2.57-5.75,5.75-5.75h286.04c3.18,0,5.75,2.58,5.75,5.75V419.32z"/>
	<g>
		<path class="st29" d="M140.6,363.96c-0.87-3.69-2.53-10.3-3.34-13h-25.44c-0.85,2.73-2.47,9.32-3.34,13H85.63
			c9.68-30.59,14.11-43.47,24.92-70.6h27.95c10.81,27.13,15.24,40.01,24.92,70.6H140.6z M115.01,335.73l19.05,0
			c-2.67-9.46-7.74-25.17-9.52-29.65C122.75,310.57,117.68,326.28,115.01,335.73z"/>
		<path class="st29" d="M188.52,363.96c-11.87,0-18.4-6.77-18.4-19.06v-51.54h21.36v47.45c0,5.94,1.63,7.48,7.93,7.48h20.74
			l3.16,15.67H188.52z"/>
		<rect x="309.68" y="293.36" class="st29" width="21.35" height="70.6"/>
		<path class="st29" d="M231.82,363.96v-70.6c0,0,6.97,0,29.51,0c21.69,0,36.87,8.85,36.87,34.73c0,25.3-12.13,35.87-35.93,35.87
			C239.37,363.96,231.82,363.96,231.82,363.96z M253.17,348.7h6.02c13.08,0,18.29-5.84,18.29-20.6c0-13.87-6.34-19.47-19.05-19.47
			h-5.27V348.7z"/>
	</g>
	<g>
		<linearGradient id="SVGID_19_" gradientUnits="userSpaceOnUse" x1="170.7644" y1="263.0103" x2="170.7644" y2="86.498">
			<stop  offset="0" style="stop-color:#1482AF"/>
			<stop  offset="0.0198" style="stop-color:#3798BF"/>
			<stop  offset="0.0535" style="stop-color:#6EB9D8"/>
			<stop  offset="0.0827" style="stop-color:#95D1EA"/>
			<stop  offset="0.1058" style="stop-color:#AEE0F5"/>
			<stop  offset="0.12" style="stop-color:#B7E5F9"/>
			<stop  offset="0.2003" style="stop-color:#97DAF6"/>
			<stop  offset="0.3336" style="stop-color:#67CAF2"/>
			<stop  offset="0.4" style="stop-color:#55C3F0"/>
			<stop  offset="0.6" style="stop-color:#55C3F0"/>
			<stop  offset="0.6664" style="stop-color:#67CAF2"/>
			<stop  offset="0.7997" style="stop-color:#97DAF6"/>
			<stop  offset="0.88" style="stop-color:#B7E5F9"/>
			<stop  offset="0.8942" style="stop-color:#AEE0F5"/>
			<stop  offset="0.9173" style="stop-color:#95D1EA"/>
			<stop  offset="0.9465" style="stop-color:#6EB9D8"/>
			<stop  offset="0.9802" style="stop-color:#3798BF"/>
			<stop  offset="1" style="stop-color:#1482AF"/>
		</linearGradient>
		<path class="st30" d="M201.64,86.5c-13.23,0-18.56,9.11-23.52,23.68l-45.11,132.8c-3.87,11.41-8.77,18.32-16.99,19.3v0.73
			c3.81,0,22.62,0,23.41,0c13.23,0,18.56-9.11,23.52-23.68l45.11-132.8c3.87-11.41,9.23-18.31,17.45-19.3V86.5
			C221.7,86.5,202.44,86.5,201.64,86.5z"/>
		<linearGradient id="SVGID_20_" gradientUnits="userSpaceOnUse" x1="213.1968" y1="262.6291" x2="213.1968" y2="86.2446">
			<stop  offset="0" style="stop-color:#1482AF"/>
			<stop  offset="0.0198" style="stop-color:#3798BF"/>
			<stop  offset="0.0535" style="stop-color:#6EB9D8"/>
			<stop  offset="0.0827" style="stop-color:#95D1EA"/>
			<stop  offset="0.1058" style="stop-color:#AEE0F5"/>
			<stop  offset="0.12" style="stop-color:#B7E5F9"/>
			<stop  offset="0.2003" style="stop-color:#97DAF6"/>
			<stop  offset="0.3336" style="stop-color:#67CAF2"/>
			<stop  offset="0.4" style="stop-color:#55C3F0"/>
			<stop  offset="0.6" style="stop-color:#55C3F0"/>
			<stop  offset="0.6664" style="stop-color:#67CAF2"/>
			<stop  offset="0.7997" style="stop-color:#97DAF6"/>
			<stop  offset="0.88" style="stop-color:#B7E5F9"/>
			<stop  offset="0.8942" style="stop-color:#AEE0F5"/>
			<stop  offset="0.9173" style="stop-color:#95D1EA"/>
			<stop  offset="0.9465" style="stop-color:#6EB9D8"/>
			<stop  offset="0.9802" style="stop-color:#3798BF"/>
			<stop  offset="1" style="stop-color:#1482AF"/>
		</linearGradient>
		<path class="st31" d="M244.06,86.25c-13.23,0-18.56,9.11-23.52,23.68l-45.08,132.67c-3.87,11.41-8.78,18.32-16.99,19.31v0.73
			c3.81,0,22.62,0,23.42,0c13.23,0,18.56-9.11,23.52-23.68l45.08-132.67c3.87-11.41,9.23-18.31,17.45-19.31v-0.73
			C264.11,86.24,244.85,86.25,244.06,86.25z"/>
		<linearGradient id="SVGID_21_" gradientUnits="userSpaceOnUse" x1="133.406" y1="263.39" x2="133.406" y2="86.7504">
			<stop  offset="0" style="stop-color:#1482AF"/>
			<stop  offset="0.0198" style="stop-color:#3798BF"/>
			<stop  offset="0.0535" style="stop-color:#6EB9D8"/>
			<stop  offset="0.0827" style="stop-color:#95D1EA"/>
			<stop  offset="0.1058" style="stop-color:#AEE0F5"/>
			<stop  offset="0.12" style="stop-color:#B7E5F9"/>
			<stop  offset="0.2003" style="stop-color:#97DAF6"/>
			<stop  offset="0.3336" style="stop-color:#67CAF2"/>
			<stop  offset="0.4" style="stop-color:#55C3F0"/>
			<stop  offset="0.6" style="stop-color:#55C3F0"/>
			<stop  offset="0.6664" style="stop-color:#67CAF2"/>
			<stop  offset="0.7997" style="stop-color:#97DAF6"/>
			<stop  offset="0.88" style="stop-color:#B7E5F9"/>
			<stop  offset="0.8942" style="stop-color:#AEE0F5"/>
			<stop  offset="0.9173" style="stop-color:#95D1EA"/>
			<stop  offset="0.9465" style="stop-color:#6EB9D8"/>
			<stop  offset="0.9802" style="stop-color:#3798BF"/>
			<stop  offset="1" style="stop-color:#1482AF"/>
		</linearGradient>
		<path class="st32" d="M159.25,86.75c-13.23,0-18.56,9.11-23.52,23.68L83.72,263.39c3.81,0,12.47,0,13.26,0
			c13.23,0,18.56-9.11,23.52-23.68l45.16-132.93c3.87-11.41,9.23-18.31,17.45-19.3v-0.73C179.28,86.75,160.04,86.75,159.25,86.75z"
			/>
		<linearGradient id="SVGID_22_" gradientUnits="userSpaceOnUse" x1="243.2706" y1="167.9437" x2="294.7392" y2="146.6247">
			<stop  offset="0.2" style="stop-color:#55C3F0"/>
			<stop  offset="0.3163" style="stop-color:#67CAF2"/>
			<stop  offset="0.5495" style="stop-color:#97DAF6"/>
			<stop  offset="0.69" style="stop-color:#B7E5F9"/>
			<stop  offset="0.7266" style="stop-color:#AEE0F5"/>
			<stop  offset="0.7863" style="stop-color:#95D1EA"/>
			<stop  offset="0.8617" style="stop-color:#6EB9D8"/>
			<stop  offset="0.949" style="stop-color:#3798BF"/>
			<stop  offset="1" style="stop-color:#1482AF"/>
		</linearGradient>
		<path class="st33" d="M294.07,148.32c-4.91-10.01-10.2-11.28-19.44-11.28H251.1l-9.3,27.36h46.15c6.64,0,12.01,0.87,15.74,5.83
			h0.82C304.52,170.23,295.25,150.73,294.07,148.32z"/>
		<linearGradient id="SVGID_23_" gradientUnits="userSpaceOnUse" x1="232.0576" y1="212.7961" x2="308.864" y2="180.9819">
			<stop  offset="0.3" style="stop-color:#55C3F0"/>
			<stop  offset="0.4092" style="stop-color:#67CAF2"/>
			<stop  offset="0.6281" style="stop-color:#97DAF6"/>
			<stop  offset="0.76" style="stop-color:#B7E5F9"/>
			<stop  offset="0.7883" style="stop-color:#AEE0F5"/>
			<stop  offset="0.8346" style="stop-color:#95D1EA"/>
			<stop  offset="0.8929" style="stop-color:#6EB9D8"/>
			<stop  offset="0.9605" style="stop-color:#3798BF"/>
			<stop  offset="1" style="stop-color:#1482AF"/>
		</linearGradient>
		<path class="st34" d="M310.82,187.81c-4.61-9.67-10.16-11.25-19.45-11.25h-53.69l-9.3,27.36h75.94c6.83,0,11.89,1,15.72,6.01h0.82
			C320.85,209.93,311.98,190.23,310.82,187.81z"/>
		<linearGradient id="SVGID_24_" gradientUnits="userSpaceOnUse" x1="220.6575" y1="257.843" x2="322.6097" y2="215.613">
			<stop  offset="0" style="stop-color:#73CDF3"/>
			<stop  offset="0.1146" style="stop-color:#62C8F1"/>
			<stop  offset="0.2416" style="stop-color:#58C4F0"/>
			<stop  offset="0.4" style="stop-color:#55C3F0"/>
			<stop  offset="0.4973" style="stop-color:#67CAF2"/>
			<stop  offset="0.6924" style="stop-color:#97DAF6"/>
			<stop  offset="0.81" style="stop-color:#B7E5F9"/>
			<stop  offset="0.8324" style="stop-color:#AEE0F5"/>
			<stop  offset="0.869" style="stop-color:#95D1EA"/>
			<stop  offset="0.9152" style="stop-color:#6EB9D8"/>
			<stop  offset="0.9687" style="stop-color:#3798BF"/>
			<stop  offset="1" style="stop-color:#1482AF"/>
		</linearGradient>
		<path class="st35" d="M328,228.68c-4.81-10.78-10.79-12.39-20.08-12.39h-83.74l-7.7,22.67c-0.56,1.64-1.12,3.2-1.7,4.7
			c41.19,0,102.85,0,106,0c6.18,0,11.27,1.09,15.19,6.19h0.82C336.78,249.84,328.54,229.9,328,228.68z"/>
	</g>
</g>
</svg>
