<?xml version="1.0" encoding="utf-8"?>
<!-- Generator: Adobe Illustrator 26.5.0, SVG Export Plug-In . SVG Version: 6.00 Build 0)  -->
<svg version="1.2" baseProfile="tiny" id="Layer_1" xmlns="http://www.w3.org/2000/svg" xmlns:xlink="http://www.w3.org/1999/xlink"
	 x="0px" y="0px" viewBox="0 0 340.2 340.2" overflow="visible" xml:space="preserve">
<g>
	<g>
		<g>
			<rect x="34" y="35.4" fill-rule="evenodd" fill="#D2232A" width="272.1" height="272.1"/>
			<g>
				<path fill="#FFD400" d="M284.1,184.9c0,5.2-4.2,9.4-9.4,9.4c-5.2,0-9.4-4.2-9.4-9.4c0-5.2,4.2-9.4,9.4-9.4
					C279.9,175.5,284.1,179.7,284.1,184.9"/>
				<path fill-rule="evenodd" fill="#FFFFFF" d="M75.8,170.7h3.5c4,0,6.4-2.4,6.8-5.5c0.4-2.6-1.5-5.5-5.2-5.5h-3.4L75.8,170.7z
					 M252.4,164.3l8-14.9h18.3L251,193.1h-18.6l8.8-12.5l-10.1-30.3l-6.9,42.8h-14.6l-9-20.2l-3.2,20.2h-14.6l7-43.7h15l8.7,19.6
					l3.1-19.6h32L252.4,164.3z M184,149.4l-7,43.7h-14.6l-9-20.2l-3.3,20.2h-14.6l7-43.7h15l8.7,19.6l3.1-19.6H184z M85.1,148.7
					c10.1,0,17,5.5,17,14.3l2.2-13.6h33.1l-1.8,11.1h-17.5l-0.9,5.2h15.8l-1.8,10.9h-15.9l-0.9,5.4h17.8l-1.8,11.1H97.3l3.8-23.7
					c-2.6,7.7-9.6,12.2-18.7,12.2H74l-1.8,11.5H56.3l7.1-44.4L85.1,148.7z"/>
			</g>
		</g>
	</g>
</g>
</svg>
